<svg xmlns="http://www.w3.org/2000/svg" xmlns:xlink="http://www.w3.org/1999/xlink" version="1.1" x="0px" y="0px" viewBox="0 0 100 100" style="enable-background:new 0 0 100 100;" xml:space="preserve"><g><path d="M89.8388824,79.4838867L81.0312653,65.921875c-0.5922852-0.9130859-1.5063477-1.5405273-2.5737305-1.7666016   c-0.5527954-0.1171265-1.1108398-0.1140137-1.6478882-0.0063477l-2.5952759-3.996582   c-0.0290527-0.0446777-0.0726929-0.0709839-0.1072388-0.109375c2.8321533-2.6055298,4.798584-5.9986572,5.617981-9.8330078   c1.0458984-4.8925781,0.1186523-9.8989258-2.609375-14.09375c-0.8115234-1.2587891-1.8022461-2.4379883-2.9418945-3.5024414   c-2.9194336-2.746582-6.7441406-4.5029297-10.7670898-4.9448242c-4.1723633-0.4726563-8.2626953,0.4375-11.7880859,2.6035156   c-0.1738281,0.0961914-0.3276367,0.1875-0.4887695,0.2910156c-0.0317383,0.0200195-0.0620117,0.0419922-0.0908203,0.0654297   c-2.2641602,1.4697266-4.1450195,3.3769531-5.5634766,5.6289063c-0.1074219,0.152832-0.1962891,0.300293-0.2988281,0.4716797   c-1.4594727,2.4516602-2.3496094,5.253418-2.5742188,8.1020508c-0.2211914,2.7983398,0.1977539,5.6435547,1.2075195,8.21875   c0.4619141,1.2163086,1.0527344,2.3759766,1.7529297,3.440918c3.59375,5.5395508,9.6381836,8.5585938,15.8022461,8.5585938   c2.4810791,0,4.9789429-0.4998169,7.3463135-1.510498c0.0206299,0.0455933,0.0264893,0.0946655,0.0545654,0.1379395   l2.5933228,3.9934082c-0.3200073,0.4481812-0.5516357,0.9577026-0.6690063,1.5119629   c-0.2246094,1.0615234-0.0205078,2.1469727,0.5732422,3.0522461l8.8076172,13.5712891   c0.1914063,0.2949219,0.512207,0.4555664,0.8398438,0.4555664c0.1860352,0,0.3745117-0.0517578,0.5419922-0.1601563   l8.0898438-5.2333984c0.2231445-0.1445313,0.3793945-0.371582,0.4350586-0.6308594   C90.0332184,79.9775391,89.9834137,79.706543,89.8388824,79.4838867z M47.2373199,55.3974609   c-0.6235352-0.9482422-1.1474609-1.9765625-1.5610352-3.0673828c-0.9038086-2.3046875-1.2773438-4.8432617-1.0795898-7.3413086   c0.2001953-2.5444336,0.9951172-5.046875,2.3051758-7.2470703c0.0688477-0.1152344,0.1318359-0.222168,0.2373047-0.375   c1.3017578-2.0644531,2.9975586-3.7783203,5.0405273-5.09375c0.0288086-0.0185547,0.0566406-0.0385742,0.0830078-0.0600586   c0.1069336-0.0664063,0.215332-0.1303711,0.3637695-0.2133789c3.1796875-1.9526367,6.8330078-2.7631836,10.559082-2.3427734   c3.597168,0.3950195,7.0126953,1.9624023,9.6206055,4.4165039c1.0219727,0.9541016,1.90625,2.0063477,2.6308594,3.1303711   c2.4379883,3.7485352,3.2661133,8.2192383,2.3325195,12.5883789c-0.9365234,4.3798828-3.5297852,8.1328125-7.3027344,10.5673828   c-0.0004883,0.0004883-0.0009766,0.0004883-0.0009766,0.0004883   C62.6938629,65.3896484,52.2758942,63.1635742,47.2373199,55.3974609z M71.5517731,62.0395508   c0.3561401-0.2297974,0.6888428-0.4847412,1.0258789-0.7351074l2.395752,3.689209l-2.0916138,1.3488159l-2.3856812-3.673645   C70.8517609,62.4701538,71.2049713,62.263916,71.5517731,62.0395508z M81.2055817,83.8798828l-8.2666016-12.737793   c-0.3017578-0.4599609-0.4052734-1.0087891-0.2919922-1.5449219c0.1147461-0.5400391,0.4350586-1.0039063,0.9487305-1.3330078   l2.8833008-1.8613281c0.3408203-0.222168,0.7304688-0.3369141,1.128418-0.3369141   c0.1445313,0,0.2905273,0.0151367,0.4355469,0.0458984c0.5439453,0.1152344,1.0092773,0.4345703,1.3120117,0.9008789   l8.2607422,12.7202148L81.2055817,83.8798828z"></path><path d="M75.9936676,49.425293c0.8364258-3.9023438,0.0942383-7.8999023-2.0864258-11.2524414   c-0.640625-0.9951172-1.4321289-1.9355469-2.3496094-2.7919922c-0.7832031-0.7363281-1.6503906-1.3886719-2.5786133-1.9379883   c-1.8120117-1.0727539-3.8876953-1.7626953-6.0004883-1.9946289c-3.3173828-0.3764648-6.5683594,0.3481445-9.3959961,2.0839844   l-0.4169922,0.2539063c-1.8193359,1.1723633-3.3300781,2.699707-4.4882813,4.5361328l-0.2216797,0.3491211   c-1.1630859,1.9545898-1.8725586,4.1879883-2.0517578,6.4594727c-0.1757813,2.2280273,0.1621094,4.5043945,0.9731445,6.5727539   c0.3642578,0.9594727,0.8325195,1.8769531,1.3881836,2.7216797c1.2705078,1.9594727,2.925293,3.5507813,4.9179688,4.7304688   c2.378418,1.4086914,5.0180664,2.1103516,7.652832,2.1103516c2.8291016,0,5.652832-0.8085938,8.1435547-2.4199219   C72.8437653,56.675293,75.1572418,53.3295898,75.9936676,49.425293z M68.3945465,57.1660156   c-4.1704102,2.6972656-9.4160156,2.8012695-13.6928711,0.269043c-1.7246094-1.0214844-3.1572266-2.3999023-4.262207-4.1030273   c-0.4790039-0.7285156-0.8803711-1.515625-1.1967773-2.3486328c-0.7050781-1.7978516-0.9970703-3.7670898-0.8447266-5.6953125   c0.1547852-1.9672852,0.769043-3.9013672,1.7607422-5.5683594l0.2080078-0.3276367   c1.003418-1.5908203,2.3095703-2.9116211,3.8598633-3.9106445l0.3989258-0.2426758   c2.0273438-1.2446289,4.3032227-1.8862305,6.6572266-1.8862305c0.4887695,0,0.980957,0.027832,1.4746094,0.0834961   c1.8349609,0.2011719,3.6337891,0.7988281,5.2026367,1.7275391c0.8017578,0.4746094,1.5512695,1.0380859,2.2299805,1.6767578   c0.7993164,0.7460938,1.484375,1.559082,2.0380859,2.4194336c1.8911133,2.9067383,2.5336914,6.3681641,1.8095703,9.746582   C73.3134918,52.387207,71.3095856,55.284668,68.3945465,57.1660156z"></path><path d="M69.2505035,66.4238281H67.386734H12.0000162V24.6713867h68.8330078v40.112793c0,0.5522461,0.4477539,1,1,1   s1-0.4477539,1-1v-41.112793v-8.9331055c0-0.5522461-0.4477539-1-1-1H11.0000162c-0.5522461,0-1,0.4477539-1,1v8.9331055   v43.7524414c0,0.5522461,0.4477539,1,1,1H67.386734h1.8637695c0.5522461,0,1-0.4477539,1-1   S69.8027496,66.4238281,69.2505035,66.4238281z M80.8330231,15.7382813v6.9331055H12.0000162v-6.9331055H80.8330231z"></path><path d="M17.0586109,21.8574219c1.4677734,0,2.6621094-1.190918,2.6621094-2.6552734s-1.1943359-2.6557617-2.6621094-2.6557617   s-2.6621103,1.1914063-2.6621103,2.6557617S15.5908365,21.8574219,17.0586109,21.8574219z M17.0586109,18.5463867   c0.3652344,0,0.6621094,0.2939453,0.6621094,0.6557617c0,0.3613281-0.296875,0.6552734-0.6621094,0.6552734   s-0.6621094-0.2939453-0.6621094-0.6552734C16.3965015,18.840332,16.6933765,18.5463867,17.0586109,18.5463867z"></path><path d="M23.5527515,21.8574219c1.4677734,0,2.6621094-1.190918,2.6621094-2.6552734s-1.1943359-2.6557617-2.6621094-2.6557617   s-2.6621094,1.1914063-2.6621094,2.6557617S22.0849781,21.8574219,23.5527515,21.8574219z M23.5527515,18.5463867   c0.3652344,0,0.6621094,0.2939453,0.6621094,0.6557617c0,0.3613281-0.296875,0.6552734-0.6621094,0.6552734   s-0.6621094-0.2939453-0.6621094-0.6552734C22.8906422,18.840332,23.1875172,18.5463867,23.5527515,18.5463867z"></path><path d="M30.0468922,21.8574219c1.4677734,0,2.6621075-1.190918,2.6621075-2.6552734s-1.194334-2.6557617-2.6621075-2.6557617   s-2.6621094,1.1914063-2.6621094,2.6557617S28.5791187,21.8574219,30.0468922,21.8574219z M30.0468922,18.5463867   c0.3652344,0,0.6621094,0.2939453,0.6621094,0.6557617c0,0.3613281-0.296875,0.6552734-0.6621094,0.6552734   s-0.6621094-0.2939453-0.6621094-0.6552734C29.3847828,18.840332,29.6816578,18.5463867,30.0468922,18.5463867z"></path><path d="M27.4209156,55.96875c-2.0043945,0-3.6352539,1.6308594-3.6352539,3.6352539   c0,2.0048828,1.6308594,3.6357422,3.6352539,3.6357422c2.0048828,0,3.6357422-1.6308594,3.6357422-3.6357422   C31.0566578,57.5996094,29.4257984,55.96875,27.4209156,55.96875z M27.4209156,61.2397461   c-0.9018555,0-1.6352539-0.7338867-1.6352539-1.6357422s0.7333984-1.6352539,1.6352539-1.6352539   s1.6357422,0.7333984,1.6357422,1.6352539S28.3227711,61.2397461,27.4209156,61.2397461z"></path><path d="M32.8139801,33.2480469c0-2.9736328-2.4194317-5.3925781-5.3930645-5.3925781s-5.3925781,2.4189453-5.3876953,5.4912109   l0.0830078,0.7885742c0,0.0332031,0.0014648,0.0751953,0.0048828,0.1083984l1.6645508,16.5751953   c0,2.0048828,1.6308594,3.6357422,3.6352539,3.6357422c2.0048828,0,3.6357422-1.6308594,3.6308594-3.5361328l1.7573223-17.5717773   C32.8125153,33.3139648,32.8139801,33.2807617,32.8139801,33.2480469z M29.0566578,50.8188477   c0,0.9018555-0.7338867,1.6357422-1.6357422,1.6357422s-1.6352539-0.7338867-1.6401367-1.7353516L24.1162281,34.144043   c0-0.0327148-0.0014648-0.074707-0.0048828-0.1074219l-0.0830078-0.7885742c0-1.8706055,1.5219727-3.3925781,3.3925781-3.3925781   c1.8554688,0,3.3681641,1.4970703,3.3925781,3.3466797L29.0566578,50.8188477z"></path><path d="M57.1074371,38.1333008c0.1298828,0,0.262207-0.0258789,0.3891602-0.0795898   c0.2802734-0.1186523,0.5673828-0.2231445,0.8613281-0.3134766c0.5283203-0.1616211,0.8251953-0.7207031,0.6635742-1.2485352   c-0.1611328-0.527832-0.7226563-0.824707-1.2485352-0.6635742c-0.3603516,0.1098633-0.7128906,0.2387695-1.0556641,0.3837891   c-0.5087891,0.215332-0.746582,0.8022461-0.53125,1.3105469C56.3471832,37.9038086,56.7177887,38.1333008,57.1074371,38.1333008z"></path><path d="M60.9931793,55.3007813c-4.949707,0-8.9765625-4.0268555-8.9765625-8.9765625   c0-2.4985352,1.0537109-4.9038086,2.8916016-6.5991211c0.4057617-0.3745117,0.4311523-1.0068359,0.0566406-1.4130859   c-0.3730469-0.4047852-1.0058594-0.4316406-1.4130859-0.0566406c-2.246582,2.0722656-3.5351563,5.0131836-3.5351563,8.0688477   c0,6.0527344,4.9238281,10.9765625,10.9765625,10.9765625c0.5522461,0,1-0.4477539,1-1   S61.5454254,55.3007813,60.9931793,55.3007813z"></path></g></svg>